<svg viewBox="0 0 20.0123 19.1818" xmlns="http://www.w3.org/2000/svg" xmlns:xlink="http://www.w3.org/1999/xlink" width="20.012268" height="19.181816" fill="none" customFrame="#000000">
	<g id="Group">
		<path id="Vector" d="M7.54548 18.1818C7.09361 18.1818 6.72729 17.8155 6.72729 17.3636C6.72729 16.9118 7.09361 16.5455 7.54548 16.5455C7.99735 16.5455 8.36366 16.9118 8.36366 17.3636C8.36366 17.8155 7.99735 18.1818 7.54548 18.1818Z" stroke="rgb(155.125,155.125,155.125)" stroke-linecap="round" stroke-linejoin="round" stroke-width="2" />
		<path id="Vector" d="M16.5455 18.1818C16.0936 18.1818 15.7273 17.8155 15.7273 17.3636C15.7273 16.9118 16.0936 16.5455 16.5455 16.5455C16.9973 16.5455 17.3637 16.9118 17.3637 17.3636C17.3637 17.8155 16.9973 18.1818 16.5455 18.1818Z" stroke="rgb(155.125,155.125,155.125)" stroke-linecap="round" stroke-linejoin="round" stroke-width="2" />
		<path id="Vector" d="M1 1L4.27273 1L6.46545 11.9555C6.54027 12.3321 6.7452 12.6705 7.04436 12.9113C7.34351 13.1522 7.71784 13.2801 8.10182 13.2727L16.0545 13.2727C16.4385 13.2801 16.8129 13.1522 17.112 12.9113C17.4112 12.6705 17.6161 12.3321 17.6909 11.9555L19 5.09091L5.09091 5.09091" fill-rule="nonzero" stroke="rgb(155.125,155.125,155.125)" stroke-linecap="round" stroke-linejoin="round" stroke-width="2" />
	</g>
</svg>
